<svg width="68" height="68" viewBox="0 0 68 68" fill="none" xmlns="http://www.w3.org/2000/svg">
<g clip-path="url(#clip0_1096_4341)">
<path d="M2.83329 41.1626H11.3333C11.3333 41.1626 12.75 41.1626 12.75 42.5793V62.4126C12.75 62.4126 12.75 63.8293 11.3333 63.8293H2.83329C2.83329 63.8293 1.41663 63.8293 1.41663 62.4126V42.5793C1.41663 42.5793 1.41663 41.1626 2.83329 41.1626Z" stroke="#361452" stroke-linecap="round" stroke-linejoin="round"/>
<path d="M12.75 59.5794C42.5793 69.5272 33.4333 69.8105 65.7985 53.448C66.0134 53.3372 66.1971 53.1744 66.3328 52.9744C66.4686 52.7744 66.5521 52.5435 66.5758 52.303C66.5995 52.0624 66.5625 51.8197 66.4683 51.5971C66.3741 51.3744 66.2257 51.1789 66.0365 51.0284C65.1124 50.2248 63.9946 49.6762 62.7936 49.4367C61.5927 49.1972 60.35 49.2751 59.1883 49.6627L44.455 54.553" stroke="#361452" stroke-linecap="round" stroke-linejoin="round"/>
<path d="M26.9167 55.3294H42.5C43.2514 55.3294 43.9721 55.0309 44.5035 54.4996C45.0348 53.9682 45.3333 53.2475 45.3333 52.4961C45.3333 51.7446 45.0348 51.024 44.5035 50.4926C43.9721 49.9613 43.2514 49.6628 42.5 49.6628H34C30.6419 46.1973 26.0726 44.1664 21.25 43.9961H12.75" stroke="#361452" stroke-linecap="round" stroke-linejoin="round"/>
<path d="M12.75 9.99609C12.75 12.2504 13.6455 14.4124 15.2396 16.0065C16.8337 17.6006 18.9957 18.4961 21.25 18.4961C23.5043 18.4961 25.6663 17.6006 27.2604 16.0065C28.8545 14.4124 29.75 12.2504 29.75 9.99609C29.75 7.74175 28.8545 5.57975 27.2604 3.98569C25.6663 2.39163 23.5043 1.49609 21.25 1.49609C18.9957 1.49609 16.8337 2.39163 15.2396 3.98569C13.6455 5.57975 12.75 7.74175 12.75 9.99609Z" stroke="#361452" stroke-linecap="round" stroke-linejoin="round"/>
<path d="M13.9258 5.68091C15.242 7.04591 16.8198 8.13156 18.5651 8.87298C20.3103 9.61441 22.1871 9.99638 24.0833 9.99608C26.0043 10.0021 27.9064 9.61645 29.6734 8.86274" stroke="#361452" stroke-linecap="round" stroke-linejoin="round"/>
<path d="M62.7357 18.9067C61.6036 17.0482 61.0393 14.8993 61.1122 12.7244V10.1999C61.1122 7.8937 60.196 5.68197 58.5653 4.05125C56.9346 2.42053 54.7228 1.50439 52.4167 1.50439C50.1105 1.50439 47.8987 2.42053 46.268 4.05125C44.6373 5.68197 43.7212 7.8937 43.7212 10.1999V12.7272C43.794 14.9022 43.2297 17.051 42.0977 18.9096" stroke="#361452" stroke-linecap="round" stroke-linejoin="round"/>
<path d="M43.7212 11.6336C45.3714 11.6312 47.0018 11.2743 48.502 10.587C50.0022 9.89974 51.3373 8.89808 52.4167 7.6499C53.4958 8.8986 54.8308 9.90079 56.331 10.5886C57.8313 11.2764 59.4618 11.6337 61.1122 11.6364" stroke="#361452" stroke-linecap="round" stroke-linejoin="round"/>
<path d="M44.7837 11.5828C44.9734 13.4757 45.8596 15.2307 47.2703 16.5071C48.6811 17.7835 50.5157 18.4903 52.4181 18.4903C54.3206 18.4903 56.1552 17.7835 57.5659 16.5071C58.9766 15.2307 59.8628 13.4757 60.0525 11.5828" stroke="#361452" stroke-linecap="round" stroke-linejoin="round"/>
<path d="M24.0834 21.6156C22.0249 21.1954 19.8986 21.2383 17.8588 21.7412C15.8189 22.2442 13.9164 23.1945 12.2891 24.5235C10.6619 25.8524 9.35056 27.5266 8.45019 29.4249C7.54982 31.3232 7.08295 33.3979 7.08337 35.4989" stroke="#361452" stroke-linecap="round" stroke-linejoin="round"/>
<path d="M49.5834 21.6156C51.6419 21.1954 53.7681 21.2383 55.808 21.7412C57.8479 22.2442 59.7503 23.1945 61.3776 24.5235C63.0049 25.8524 64.3162 27.5266 65.2166 29.4249C66.1169 31.3232 66.5838 33.3979 66.5834 35.4989" stroke="#361452" stroke-linecap="round" stroke-linejoin="round"/>
<path d="M30.4584 24.8711C30.4584 26.5618 31.13 28.1834 32.3256 29.3789C33.5211 30.5744 35.1426 31.2461 36.8334 31.2461C38.5241 31.2461 40.1456 30.5744 41.3412 29.3789C42.5367 28.1834 43.2084 26.5618 43.2084 24.8711C43.2084 23.1803 42.5367 21.5588 41.3412 20.3633C40.1456 19.1677 38.5241 18.4961 36.8334 18.4961C35.1426 18.4961 33.5211 19.1677 32.3256 20.3633C31.13 21.5588 30.4584 23.1803 30.4584 24.8711Z" stroke="#361452" stroke-linecap="round" stroke-linejoin="round"/>
<path d="M45.3333 41.1628C45.0171 39.4347 44.1824 37.8438 42.9401 36.6017C41.6979 35.3595 40.107 34.5248 38.3789 34.2087C36.6508 33.8925 34.8675 34.1098 33.2659 34.8317C31.6643 35.5537 30.3204 36.7459 29.4128 38.2501" stroke="#361452" stroke-linecap="round" stroke-linejoin="round"/>
</g>
<defs>
<clipPath id="clip0_1096_4341">
<rect width="68" height="68" fill="white"/>
</clipPath>
</defs>
</svg>
