<svg width="68" height="68" viewBox="0 0 68 68" fill="none" xmlns="http://www.w3.org/2000/svg">
<path d="M31.1666 13.169V7.08301H25.5V13.169C23.4544 13.7789 21.6602 15.0325 20.384 16.7436C19.1079 18.4546 18.4179 20.5318 18.4166 22.6663V63.7497C18.4166 64.5011 18.7151 65.2218 19.2465 65.7531C19.7778 66.2845 20.4985 66.583 21.25 66.583H35.4166C36.1681 66.583 36.8887 66.2845 37.4201 65.7531C37.9514 65.2218 38.25 64.5011 38.25 63.7497V22.6663C38.2487 20.5318 37.5587 18.4546 36.2825 16.7436C35.0064 15.0325 33.2122 13.7789 31.1666 13.169Z" stroke="white" stroke-width="1.5" stroke-linecap="round" stroke-linejoin="round"/>
<path d="M12.75 1.41699L25.5 7.08366C21.367 7.08366 17.4033 8.72547 14.4809 11.6479C11.5584 14.5704 9.91663 18.534 9.91663 22.667V58.0837" stroke="white" stroke-width="1.5" stroke-linecap="round" stroke-linejoin="round"/>
<path d="M56.4797 1.43037C56.6796 1.40374 56.8829 1.42011 57.076 1.47838C57.2691 1.53665 57.4475 1.63548 57.5993 1.76825C57.7511 1.90102 57.8729 2.06468 57.9563 2.24828C58.0398 2.43188 58.0831 2.63118 58.0834 2.83287V11.3329C58.0852 11.5357 58.0433 11.7366 57.9607 11.9219C57.8782 12.1073 57.7567 12.2727 57.6047 12.407C57.4526 12.5413 57.2735 12.6414 57.0794 12.7005C56.8853 12.7596 56.6808 12.7763 56.4797 12.7495L39.2927 10.4574C38.6122 10.3667 37.9877 10.0321 37.5353 9.51565C37.083 8.9992 36.8335 8.33608 36.8334 7.64953V6.53037C36.8329 5.84333 37.082 5.17952 37.5344 4.66248C37.9868 4.14543 38.6117 3.81039 39.2927 3.7197L56.4797 1.43037Z" stroke="white" stroke-width="1.5" stroke-linecap="round" stroke-linejoin="round"/>
<path d="M31.1666 7.08301H36.8333" stroke="white" stroke-width="1.5" stroke-linecap="round" stroke-linejoin="round"/>
<path d="M38.25 58.0837H31.1667C30.7909 58.0837 30.4306 57.9344 30.1649 57.6687C29.8993 57.4031 29.75 57.0427 29.75 56.667V28.3337C29.75 27.9579 29.8993 27.5976 30.1649 27.3319C30.4306 27.0662 30.7909 26.917 31.1667 26.917H38.25" stroke="white" stroke-width="1.5" stroke-linecap="round" stroke-linejoin="round"/>
</svg>
